<?xml version="1.0" standalone="no"?><!DOCTYPE svg PUBLIC "-//W3C//DTD SVG 1.1//EN" "http://www.w3.org/Graphics/SVG/1.1/DTD/svg11.dtd"><svg t="1632666728582" class="icon" viewBox="0 0 3840 1024" version="1.1" xmlns="http://www.w3.org/2000/svg" p-id="7585" xmlns:xlink="http://www.w3.org/1999/xlink" width="750" height="200"><defs><style type="text/css"></style></defs><path d="M402.6304 439.8208L290.3424 634.5152l-112.192-194.6944 112.2368-194.4z" fill="#13227a" p-id="7586"></path><path d="M514.9312 245.4272H290.4512l112.2432 194.4 224.5376-0.0064z" fill="#13227a" p-id="7587"></path><path d="M514.8736 634.6048l112.2816-194.6944 112.192 194.6944-112.2368 194.4z" fill="#13227a" p-id="7588"></path><path d="M402.5664 828.9856h224.4864L514.8032 634.5856l-224.5376 0.0192z" fill="#13227a" p-id="7589"></path><path d="M1146.3232 631.712V247.6928h-61.4336v158.7264h-181.4912V247.6928h-62.0032v384.0192h62.0032V459.3344h181.4912v172.3776zM1324.2752 631.712V247.6928h-62.016v384.0192zM1695.6032 515.648c0-39.8272-23.3216-77.9392-73.3888-87.6032v-1.1456c39.2576-13.6576 65.4272-48.3584 65.4272-87.6096 0-59.168-43.2384-93.2992-126.8672-93.2992-46.6496 0-90.4576 1.1392-120.6144 1.7088v384.0192c42.6752 0.5696 81.3568 1.7088 104.6784 1.7088 117.7728 0 150.7648-67.6992 150.7648-117.7792zM1622.784 348.96c0 38.6816-30.144 62.0096-87.6032 62.0096-13.088 0-22.7584 0-32.992-0.5696V296.6208c14.7904-0.5696 31.2896-1.1392 48.3584-1.1392 54.6048 0 72.2368 22.1888 72.2368 53.4784z m7.3984 167.8272c0 38.6944-26.7392 65.9968-83.0656 65.9968-19.9104 0-35.2704-1.152-44.9344-2.848V457.6256c8.5312-0.576 28.4352-0.576 34.7008-0.576 54.048 0 93.2992 15.936 93.2992 59.7376zM1989.7216 631.712v-52.9088h-140.5184V459.3344h133.6896v-50.6368h-133.6896V299.4624h140.5184v-51.7696h-202.5408v384.0192zM2348.5824 631.712l-101.2608-133.7024c-9.6768-12.512-21.6128-27.3088-32.416-40.96 62.5728-6.816 108.6656-46.0736 108.6656-107.52 0-76.2368-54.6112-104.1152-134.2656-104.1152-43.2384 0-75.0912 0.5696-102.9696 2.272v384.0192h62.0032V465.5872h2.8416l119.4752 166.1248h77.9264z m-89.8816-275.3536c0 38.1184-30.1504 63.7184-80.2176 63.7184-13.6576 0-24.448-0.5696-30.1504-1.1392V297.1904a522.6624 522.6624 0 0 1 32.4224-1.1392c51.776 0 77.9456 18.208 77.9456 60.3072z" fill="#13227a" p-id="7590"></path><path d="M2736.3968 631.712V247.6928h-60.32V361.472c0 56.3264 1.728 138.816 3.9936 182.6304-14.2272-27.8784-29.5808-58.6048-46.6624-87.0592l-126.8544-209.3568h-81.3696v384.0192h60.3264V502.5664c0-54.6176-1.1456-132.5568-3.424-170.1056 11.9488 25.6 25.6 52.9088 42.6816 80.7808l131.4112 218.4704h80.2176zM3146.4832 631.712L3007.104 247.6928h-68.8512l-137.664 384.0192h62.5728l29.5808-84.7744h155.3152l29.5808 84.7744h68.8448z m-114.9184-134.2656H2908.672l43.2384-118.8992c7.392-20.48 13.6576-41.5296 17.6512-60.8768h1.1328c4.5504 21.0496 9.664 39.2576 17.0688 59.168l43.8016 120.608zM3406.4128 300.032v-52.3392h-273.0816v52.3392h105.2544v331.68h62.0032V300.032zM3673.1008 631.712v-52.9088h-140.5248V459.3344h133.6896v-50.6368h-133.6896V299.4624h140.5248v-51.7696h-202.5472v384.0192z" fill="#13227a" p-id="7591"></path></svg>